<svg version="1.2" xmlns="http://www.w3.org/2000/svg" viewBox="0 0 425 225" width="425" height="225">
	<style>
		.s0 { fill: #0033ff } 
		.s1 { fill: #03cc54 } 
	</style>
	<path class="s0" d="m123.7 154.45c1.7 0.59 2.6 1.91 2.6 1.91-3.47 11.68-11.23 22.18-27.97 22.18-17.81 0-33.33-13.03-33.33-33.62 0-22.97 17.67-35.72 36.66-35.72 8.11 0 15 1.73 20.2 4.64 0 0 0.38 0.25 0.62 0.56 0.25 0.31 0.32 0.76 0.32 0.76l0.65 17.39c0 0-0.9 1.08-4.29 1.08-3.4 0-3.12-1.08-3.12-1.08l-0.17-2.39c0-7.69-6.24-12.75-14.31-12.75-12.89 0-18.47 12.23-18.47 24.71 0 13.41 7.97 24.7 20.44 24.7 6.93 0 11.37-3.91 16.29-12.47 0 0 1.73-0.66 3.88 0.1zm274.63 10.02h-1.59c-2.67 0-5.3-2.67-5.3-5.3v-46.71c0 0-0.1-1.39-1.56-1.39h-4.05c-0.8 0-1.39 0.66-1.39 0.66l-5.65 7.35c-0.66 0.86-1.42 0-1.42 0-3.78-4.44-10.12-9.91-21.52-9.91-17.11 0-33.47 12.47-33.47 35.34 0 21.38 14.07 33.99 31.36 33.99 9.84 0 16.08-4.12 21-10.5v7.9c0 0 0.07 1.8 2.08 2.25 1.83 0.42 3.22-0.17 3.22-0.17l18.33-7.83c0 0 1.07-0.97 1.07-3.01 0-2.05-1.07-2.67-1.07-2.67m-41.16 5.3c-11.82 0-16.74-11.68-16.74-25.88 0-14.21 4.92-25.89 16.74-25.89 11.81 0 16.73 11.68 16.73 25.89 0 14.2-4.92 25.88-16.73 25.88zm-193.98-0.24c0 0 1.08 0.65 1.08 3.25 0 2.6-1.08 3.92-1.08 3.92h-31.36c0 0-1.07-1.63-1.07-4.12 0-2.5 1.07-3.02 1.07-3.02h1.6c2.67 0 5.3-2.67 5.3-5.3v-39.12c0-2.67-2.67-5.3-5.3-5.3h-1.6c0 0-1.07-0.52-1.07-3.02 0-2.49 1.07-4.12 1.07-4.12h31.36c0 0 1.08 1.32 1.08 3.92 0 2.59-1.08 3.25-1.08 3.25h-1.59c-2.67 0-5.3 2.67-5.3 5.3v39.12c0 2.67 2.67 5.31 5.3 5.31h1.59m-15.66-87.6c6.07 0 10.99 5.02 10.99 11.26 0 6.24-4.92 11.26-10.99 11.26-6.06 0-10.98-5.06-10.98-11.26 0-6.2 4.92-11.26 10.98-11.26zm97.96 104.64h3.5v8.25c0.97-1.45 2.39-2.7 4.78-2.7 3.43 0 5.44 2.32 5.44 5.89v9.73h-3.5v-8.69c0-2.39-1.18-3.74-3.29-3.74-2.12 0-3.47 1.42-3.47 3.81v8.62h-3.5c0 0 0-21.17 0.04-21.17zm17.11 13.55v-0.07c0-4.36 3.09-7.97 7.49-7.97 4.88 0 7.35 3.81 7.35 8.25 0 0.31 0 0.62-0.07 0.97h-11.27c0.39 2.49 2.15 3.88 4.4 3.88 1.7 0 2.95-0.62 4.16-1.84l2.05 1.84c-1.46 1.73-3.47 2.88-6.27 2.88-4.44 0-7.87-3.23-7.87-7.94m11.33-1.14c-0.24-2.25-1.56-4.02-3.88-4.02-2.15 0-3.64 1.66-3.98 4.02zm16.35 8.73v-1.87c-1.04 1.25-2.63 2.22-4.95 2.22-2.92 0-5.45-1.67-5.45-4.72v-0.07c0-3.39 2.64-5.02 6.21-5.02 1.87 0 3.05 0.28 4.22 0.62v-0.27c0-2.12-1.35-3.29-3.77-3.29-1.7 0-2.98 0.38-4.37 0.97l-0.97-2.81c1.7-0.76 3.33-1.28 5.82-1.28 4.51 0 6.73 2.39 6.73 6.48v9.07c0 0-3.47 0-3.47-0.03zm0.1-6.41c-0.9-0.35-2.14-0.62-3.5-0.62-2.21 0-3.5 0.9-3.5 2.39v0.07c0 1.45 1.32 2.25 2.95 2.25 2.32 0 4.05-1.32 4.05-3.22zm7.77-14.76h3.5v21.17h-3.5zm8.8 16.91v-8.08h-1.94v-3.01h1.94v-4.19h3.5v4.19h4.12v3.01h-4.12v7.52c0 1.35 0.69 1.91 1.87 1.91 0.79 0 1.49-0.18 2.18-0.52v2.87c-0.87 0.49-1.87 0.8-3.15 0.8-2.57 0-4.4-1.14-4.4-4.5zm11.15-16.91h3.5v8.24c0.97-1.45 2.39-2.7 4.79-2.7 3.43 0 5.44 2.32 5.44 5.89v9.74h-3.5v-8.7c0-2.39-1.18-3.74-3.3-3.74-2.11 0-3.46 1.42-3.46 3.81v8.63h-3.5v-21.17zm17.12 13.58v-0.07c0-4.37 3.36-8 7.93-8 2.91 0 4.71 1.07 6.1 2.63l-2.18 2.36c-1.08-1.15-2.22-1.91-3.99-1.91-2.56 0-4.4 2.22-4.4 4.89v0.06c0 2.74 1.87 4.93 4.58 4.93 1.66 0 2.87-0.8 3.98-1.91l2.11 2.08c-1.52 1.7-3.29 2.87-6.27 2.87-4.54 0-7.9-3.56-7.9-7.9m26.75 7.56v-1.87c-1.04 1.24-2.63 2.21-4.95 2.21-2.91 0-5.44-1.66-5.44-4.71v-0.07c0-3.39 2.63-5.02 6.2-5.02 1.87 0 3.05 0.28 4.23 0.62v-0.28c0-2.11-1.32-3.29-3.78-3.29-1.7 0-2.98 0.38-4.37 0.97l-0.97-2.8c1.7-0.77 3.33-1.29 5.82-1.29 4.51 0 6.73 2.4 6.73 6.48v9.08c0 0-3.47 0-3.47-0.03zm0.11-6.41c-0.9-0.35-2.15-0.63-3.5-0.63-2.22 0-3.5 0.9-3.5 2.39v0.07c0 1.46 1.31 2.26 2.94 2.26 2.32 0 4.06-1.32 4.06-3.23zm7.55-8.9h3.5v3.46c0.97-2.28 2.74-3.84 5.4-3.74v3.71h-0.2c-3.09 0-5.24 2.01-5.24 6.06v5.82h-3.5v-15.31zm10.61 7.69v-0.07c0-4.36 3.08-7.97 7.48-7.97 4.89 0 7.35 3.81 7.35 8.25 0 0.31 0 0.62-0.07 0.97h-11.26c0.38 2.49 2.15 3.88 4.4 3.88 1.7 0 2.94-0.62 4.16-1.84l2.04 1.84c-1.45 1.73-3.46 2.88-6.27 2.88-4.44 0-7.87-3.23-7.83-7.94zm11.29-1.14c-0.24-2.25-1.56-4.02-3.88-4.02-2.15 0-3.64 1.66-3.98 4.02zm-71.42-29.49c0 0 1.08 0.55 1.08 3.26 0 2.7-1.08 3.88-1.08 3.88h-31.35c0 0-1.08-1.46-1.08-4.16 0-2.7 1.08-2.98 1.08-2.98h1.59c2.67 0 5.3-2.67 5.3-5.3v-31.64c0-8.76-5.3-12.75-12.47-12.75-8.35 0-14.87 6.52-14.87 17.4v26.99c0 2.67 2.67 5.3 5.3 5.3h1.6c0 0 1.07 0.17 1.07 3.08 0 2.91-1.07 4.06-1.07 4.06h-31.36c0 0-1.07-1.25-1.07-4.13 0-2.87 1.07-3.04 1.07-3.04h1.59c2.67 0 5.3-2.67 5.3-5.31v-36.69c0-2.67-2.66-5.3-5.3-5.3h-1.59c-0.69-1.11-1.07-1.98-1.07-3.61 0-1.83 0.65-2.98 1.07-3.53 7.55 0 16.49-3.15 18.26-3.85 2.63-1.04 4.82-0.27 4.82 2.01 0 0.84 0 7.8 0 7.8 4.78-7.03 12.61-11.82 22.83-11.82 13.83 0 23.39 7.45 23.39 22.7v32.29c0 2.67 2.67 5.31 5.3 5.31h1.59zm-83.09-51.49c0-1.6-0.59-3.33-1.04-3.99h-17.63c-4.75-3.12-10.67-4.92-17.22-4.92-16.39 0-28.45 10.98-28.45 24.74 0 8.46 4.64 15.35 10.98 19.58l-11.15 13.86c0 0-1.43 2.56-1.43 5.13 0 2.56 1.63 4.26 1.63 4.26h7.9c-5.82 3.43-8.45 9.18-8.45 14.07 0 9.52 8.35 17.32 26.99 17.32 18.64 0 36.25-9.91 36.25-25.54 0-11.12-6.62-18.64-23.15-18.64h-25.02l4.89-6.62c2.77 0.94 5.02 1.32 9.01 1.32 16.28 0 28.44-11.12 28.44-24.74 0-4.23-1.17-8.21-3.25-11.68h9.66c0.52-0.9 1.08-2.11 1.08-4.15m-44.91 58.66h14.83c8.87 0 11.92 4.92 11.92 9.98 0 6.34-6.1 12.82-17.08 12.82-10.33 0-16.15-4.65-16.15-11.51 0-4.64 2.64-9.28 6.48-11.29zm9.01-26.3c-7.41 0-12.16-6.2-12.16-16.53 0-10.33 4.75-16.53 12.16-16.53 7.42 0 12.02 6.2 12.02 16.53 0 10.33-4.74 16.53-12.02 16.53z"/>
	<path fill-rule="evenodd" class="s1" d="m137.99 43.63c0-9.43 4.3-17.89 11.01-23.53 6.65 5.69 10.91 14.15 10.86 23.58 0 9.43-4.3 17.89-10.96 23.53-6.65-5.69-10.91-14.15-10.91-23.58zm47.76-37.45c3.01 5.92 3.56 13.09 0.79 19.7-2.73 6.61-8.19 11.28-14.52 13.31-3.05-5.91-3.56-13.08-0.79-19.69 2.73-6.61 8.19-11.28 14.52-13.32zm-73.55-0.18c6.33 2.03 11.74 6.75 14.47 13.36 2.72 6.61 2.17 13.78-0.88 19.7-6.34-2.04-11.74-6.75-14.47-13.37-2.73-6.61-2.18-13.77 0.88-19.69zm-52.2 51.96c5.92-3.05 13.08-3.56 19.69-0.78 6.62 2.73 11.29 8.18 13.32 14.52-5.92 3.05-13.08 3.56-19.7 0.78-6.61-2.73-11.28-8.18-13.31-14.52zm177.67 0.37c-2.03 6.34-6.75 11.75-13.36 14.48-6.61 2.72-13.78 2.17-19.7-0.88 2.04-6.34 6.75-11.75 13.37-14.47 6.61-2.73 13.77-2.18 19.69 0.87zm-14.1 36.76c-5.69 6.7-14.15 10.91-23.58 10.91-9.43 0-17.89-4.25-23.53-10.96 5.69-6.7 14.15-10.91 23.58-10.91 9.43 0 17.89 4.26 23.53 10.96zm-21.78-52.94c0.7 8.74-2.26 17.71-8.97 24.37-6.7 6.66-15.67 9.61-24.41 8.87-0.69-8.73 2.27-17.7 8.97-24.36 6.71-6.66 15.68-9.62 24.41-8.88zm-80.58 52.89c-5.64 6.66-14.1 10.96-23.53 10.96-9.43 0-17.89-4.25-23.58-10.91 5.64-6.66 14.1-10.96 23.53-10.96 9.43 0 17.89 4.26 23.58 10.91zm8.05-19.65c-8.74 0.74-17.71-2.21-24.41-8.87-6.71-6.66-9.67-15.63-8.97-24.37 8.73-0.74 17.7 2.22 24.41 8.88 6.7 6.66 9.66 15.63 8.97 24.36z"/>
</svg>